HIERARCHY
ROOT Hips
{
	OFFSET -8.322684 108.804031 0.588293
	CHANNELS 6 Xposition Yposition Zposition Xrotation Yrotation Zrotation
	JOINT Chest
	{
		OFFSET 0.856414 13.485519 1.887177
		CHANNELS 3 Xrotation Yrotation Zrotation
		JOINT Chest2
		{
			OFFSET 0.172147 21.194016 3.138530
			CHANNELS 3 Xrotation Yrotation Zrotation
			JOINT Chest3
			{
				OFFSET 0.278923 14.923111 0.206741
				CHANNELS 3 Xrotation Yrotation Zrotation
				JOINT Neck
				{
					OFFSET -0.111547 17.197418 1.688872
					CHANNELS 3 Xrotation Yrotation Zrotation
					JOINT Head
					{
						OFFSET 0.179500 10.242981 2.208339
						CHANNELS 3 Xrotation Yrotation Zrotation
						End Site
						{
							OFFSET 0.184865 10.258011 2.137005
						}
					}
				}
				JOINT LeftCollar
				{
					OFFSET 4.165298 12.946075 4.105353
					CHANNELS 3 Xrotation Yrotation Zrotation
					JOINT LeftUpArm
					{
						OFFSET 15.437442 3.896606 -7.416280
						CHANNELS 3 Xrotation Yrotation Zrotation
						JOINT LeftLowArm
						{
							OFFSET 26.237427 13.915146 16.052824
							CHANNELS 3 Xrotation Yrotation Zrotation
							JOINT LeftHand
							{
								OFFSET -22.206827 -13.428360 15.082561
								CHANNELS 3 Xrotation Yrotation Zrotation
								End Site
								{
									OFFSET -4.853442 -2.934830 3.296383
								}
							}
						}
					}
				}
				JOINT RightCollar
				{
					OFFSET -4.250180 12.879852 4.225430
					CHANNELS 3 Xrotation Yrotation Zrotation
					JOINT RightUpArm
					{
						OFFSET -14.771714 -5.485321 -7.759124
						CHANNELS 3 Xrotation Yrotation Zrotation
						JOINT RightLowArm
						{
							OFFSET -9.527721 -31.455444 -7.714469
							CHANNELS 3 Xrotation Yrotation Zrotation
							JOINT RightHand
							{
								OFFSET -13.107639 -26.779503 3.464614
								CHANNELS 3 Xrotation Yrotation Zrotation
								End Site
								{
									OFFSET -2.864822 -5.852913 0.757227
								}
							}
						}
					}
				}
			}
		}
	}
	JOINT LeftUpLeg
	{
		OFFSET 9.869443 -0.839592 1.519310
		CHANNELS 3 Xrotation Yrotation Zrotation
		JOINT LeftLowLeg
		{
			OFFSET -2.693924 -46.114426 10.497226
			CHANNELS 3 Xrotation Yrotation Zrotation
			JOINT LeftFoot
			{
				OFFSET -5.087490 -42.958969 -11.367169
				CHANNELS 3 Xrotation Yrotation Zrotation
				JOINT LeftToe
				{
					OFFSET -6.481936 -20.845690 9.110501
					CHANNELS 3 Xrotation Yrotation Zrotation
					End Site
					{
						OFFSET -2.926126 -10.704678 20.890347
					}
				}
			}
		}
	}
	JOINT RightUpLeg
	{
		OFFSET -9.869460 0.839401 -1.519338
		CHANNELS 3 Xrotation Yrotation Zrotation
		JOINT RightLowLeg
		{
			OFFSET -0.679693 -46.062435 -11.036383
			CHANNELS 3 Xrotation Yrotation Zrotation
			JOINT RightFoot
			{
				OFFSET 6.829623 -37.442055 -23.495285
				CHANNELS 3 Xrotation Yrotation Zrotation
				JOINT RightToe
				{
					OFFSET 0.395739 -23.155361 4.819675
					CHANNELS 3 Xrotation Yrotation Zrotation
					End Site
					{
						OFFSET -4.495439 -15.074952 17.666151
					}
				}
			}
		}
	}
}
MOTION
Frames: 17
Frame Time: 0.033333
-1.309395 105.312782 -1.111727 -0.751078 4.386572 3.492083 -1.447703 -0.074353 -0.560652 -2.382340 1.287472 -0.400306 3.307468 -6.636811 -3.980163 -4.575619 -1.322532 3.510613 -0.000001 0.000000 0.000000 3.206903 4.081330 -34.313361 24.081372 11.166372 -75.054674 -112.843256 58.466235 88.257164 0.000004 -0.000003 -0.000001 3.481873 -2.104510 4.546826 -11.509080 17.196120 8.787267 -0.279971 5.728442 12.107880 -0.000000 -0.000001 0.000002 18.443941 0.179063 7.108011 -13.503329 4.420216 0.015535 -19.891630 2.047293 2.684900 0.000002 -0.000003 0.000002 -5.408852 2.611213 -4.387060 -7.048430 -0.512408 -2.998726 -15.258969 -10.292377 -15.010416 0.000007 0.000003 0.000001 
-1.324783 105.311913 -1.117122 -0.480903 4.261125 3.507758 -1.843863 -0.036876 -0.620831 -2.512367 1.362654 -0.519135 3.644536 -6.591373 -3.818290 -4.677863 -1.205837 3.384678 -0.000001 0.000000 0.000000 3.330668 3.757117 -34.359055 24.126183 11.168724 -75.055070 -112.028169 58.400686 87.382585 0.000003 0.000000 -0.000000 3.554134 -2.104825 4.416711 -11.370383 17.114576 8.818508 -0.138281 5.793575 12.103654 -0.000001 -0.000001 0.000004 18.097997 0.236513 7.145727 -13.066905 4.294530 -0.036694 -19.807060 2.149145 2.672946 0.000002 -0.000001 0.000001 -5.915310 2.633580 -4.408890 -6.401608 -0.427796 -2.882284 -15.459763 -10.120971 -14.875951 0.000002 0.000001 0.000001 
-1.357470 105.309784 -1.117479 -0.905036 4.223846 3.459435 -1.147623 -0.100736 -0.557804 -2.877112 1.437434 -0.608761 3.741161 -6.683858 -3.732146 -4.525801 -1.099784 3.304207 -0.000001 0.000000 -0.000000 3.345919 4.020313 -34.520261 24.078570 11.128011 -74.857371 -112.020232 58.435943 87.447936 0.000004 -0.000002 -0.000002 3.636163 -1.550990 4.549109 -11.612763 17.425795 8.699076 0.112990 5.719455 11.858108 0.000002 -0.000000 -0.000001 17.951310 0.300311 7.306863 -11.897722 3.945665 -0.057082 -19.976029 2.510401 2.768054 0.000002 -0.000001 0.000001 -5.541894 2.516074 -4.210147 -6.369835 -0.402608 -2.936740 -15.782441 -10.135504 -15.106811 0.000006 0.000003 0.000001 
-1.393272 105.309669 -1.120327 -0.788810 4.385515 3.449947 -1.278702 -0.099247 -0.540748 -2.382028 1.387410 -0.507335 3.309282 -6.656187 -3.838210 -4.720418 -1.191630 3.462120 0.000000 -0.000001 -0.000000 3.423828 3.336396 -34.524697 23.924384 10.924642 -74.776091 -112.007227 58.543327 87.293028 -0.000000 -0.000005 -0.000004 3.593472 -1.677093 4.577110 -11.284132 17.174366 8.559941 -0.082469 5.603031 11.655094 0.000002 -0.000003 -0.000001 17.706830 0.300948 7.424924 -11.771875 3.959164 -0.066106 -20.097615 2.417687 2.801356 -0.000000 -0.000001 0.000003 -5.556574 2.504170 -4.130136 -6.786140 -0.505592 -2.968515 -15.476522 -10.417040 -15.364613 0.000003 0.000001 0.000002 
-1.440416 105.309021 -1.122728 -0.490315 4.336934 3.455969 -1.460070 -0.072393 -0.554025 -2.562873 1.398580 -0.515258 3.456931 -6.659831 -3.829004 -4.994295 -1.125793 3.445939 0.000001 0.000000 0.000000 3.357955 3.457933 -34.460326 23.903990 10.986981 -74.746940 -112.546853 58.846362 88.016331 0.000003 -0.000005 -0.000002 3.547320 -1.777409 4.774157 -11.391425 17.252559 8.513358 0.665380 5.316337 11.177293 0.000001 -0.000001 -0.000001 17.484057 0.283304 7.479812 -12.069667 4.003980 -0.051619 -20.244583 2.583100 2.839799 -0.000000 -0.000001 0.000001 -5.817179 2.538587 -4.063758 -6.781654 -0.483765 -2.870233 -15.614721 -10.390421 -15.298295 0.000006 0.000000 -0.000002 
-1.500253 105.293144 -1.118053 -0.301209 4.270697 3.544083 -1.429458 -0.063134 -0.673017 -2.736286 1.389888 -0.525286 3.420684 -6.890128 -3.860262 -4.700189 -1.044837 3.253181 -0.000001 0.000000 -0.000000 3.396976 3.609833 -34.332854 23.753929 11.110246 -74.686944 -111.903627 59.486406 87.765458 -0.000001 -0.000004 0.000000 3.451412 -2.162139 4.708590 -11.105257 16.946420 8.314522 0.428924 5.011611 11.246763 -0.000000 0.000003 -0.000002 17.253244 0.282652 7.494952 -11.192955 3.839833 0.012883 -21.161048 3.065337 3.136794 0.000001 -0.000001 -0.000001 -5.663874 2.507940 -4.058160 -6.884505 -0.719796 -2.982971 -15.525932 -10.103296 -15.149727 0.000006 0.000002 0.000002 
-1.560073 105.282158 -1.111348 -0.233330 4.454648 3.597680 -1.717748 -0.024633 -0.669395 -1.622658 1.341207 -0.454557 2.600675 -6.811812 -3.953867 -4.657065 -1.154221 3.303744 -0.000001 -0.000000 0.000000 3.167644 4.624978 -34.378333 23.305444 10.697161 -74.427499 -113.742478 60.028702 89.801551 -0.000001 -0.000004 -0.000003 3.302618 -2.381656 4.719712 -10.840663 16.500238 8.166388 0.332856 4.704273 10.845408 0.000001 0.000003 0.000002 16.876933 0.298092 7.535299 -10.615298 3.660250 -0.002730 -21.475455 3.276229 3.210984 -0.000000 0.000000 0.000004 -5.646035 2.470016 -3.983944 -6.709977 -0.699879 -2.970624 -15.940449 -9.910108 -15.110318 0.000006 0.000003 -0.000001 
-1.639920 105.275406 -1.108444 -0.194303 4.227524 3.596927 -1.731363 0.014026 -0.817289 -1.181455 1.266359 -0.356844 2.225151 -6.737696 -3.936329 -5.008441 -1.085286 3.298294 -0.000002 0.000000 0.000000 3.085732 4.870870 -34.430406 22.960866 10.388690 -74.149592 -114.598007 60.356592 90.632239 0.000002 -0.000002 -0.000004 3.198593 -2.492155 4.816409 -10.692590 16.288118 7.959644 -0.010213 4.533042 10.003252 -0.000000 -0.000001 0.000000 16.510379 0.320686 7.703262 -10.015055 3.542519 -0.075216 -21.780671 3.410854 3.293619 -0.000000 -0.000001 -0.000001 -6.069290 2.504007 -3.976997 -6.253414 -0.732502 -2.744593 -16.197659 -9.847130 -15.088363 0.000006 0.000005 0.000000 
-1.723916 105.266251 -1.097248 -0.451562 3.825886 3.609503 -0.948244 -0.042689 -0.842155 -1.381155 1.230744 -0.348703 2.124887 -7.016047 -3.891474 -4.710959 -0.783977 3.098053 -0.000001 0.000000 -0.000000 2.904592 5.600899 -34.542678 22.724477 10.713690 -73.990285 -113.687153 61.445461 90.029700 -0.000000 -0.000003 0.000000 3.131218 -1.709748 4.962780 -10.171516 15.661229 7.470311 0.017250 4.045678 9.020009 0.000002 0.000001 0.000002 16.676330 0.315024 7.727636 -9.761110 3.321624 -0.037561 -21.408688 3.477920 3.252954 -0.000002 0.000000 0.000002 -5.962371 2.453640 -4.040816 -5.841293 -0.716215 -2.452938 -16.512438 -9.792951 -15.069924 0.000004 0.000001 -0.000001 
-1.813233 105.259644 -1.085316 -0.710538 3.788964 3.662810 -0.348770 -0.075397 -0.839591 -2.365758 1.168417 -0.310641 2.694253 -6.907389 -3.954160 -4.663062 -0.856180 3.175454 -0.000001 -0.000000 -0.000000 2.809425 5.341899 -34.368979 22.466056 10.588016 -73.930364 -113.472180 62.139565 89.924317 0.000002 -0.000003 -0.000002 2.917199 -2.151355 4.958822 -9.956158 15.241793 7.111139 -0.473436 3.686647 8.616766 -0.000001 0.000001 -0.000001 16.344692 0.240388 7.781558 -8.794579 2.958083 -0.074364 -21.141590 3.736675 3.235729 -0.000002 0.000001 -0.000002 -5.879791 2.445335 -4.034560 -5.604615 -0.564921 -2.193092 -16.824615 -9.855557 -15.020324 0.000003 0.000003 -0.000001 
-1.922032 105.247398 -1.079338 -0.407976 3.479603 3.803225 -0.843033 0.027302 -1.052147 -2.207472 1.167974 -0.336663 2.722762 -6.865204 -3.891053 -4.605301 -0.966586 3.196462 -0.000001 0.000000 -0.000000 2.731887 4.982462 -34.273384 22.404159 11.088227 -73.763905 -111.978759 63.069359 88.937218 0.000002 -0.000007 -0.000001 2.736958 -2.438673 5.033884 -10.074655 15.313540 6.592721 -0.558351 3.545931 8.031099 -0.000000 -0.000002 -0.000001 15.763153 0.192327 7.755990 -8.457707 2.775508 -0.185384 -21.012874 4.259570 3.316757 -0.000000 -0.000001 0.000001 -6.327109 2.537939 -4.118368 -5.521060 -0.457591 -2.068557 -17.148011 -9.777314 -14.915460 0.000006 0.000001 -0.000004 
-2.052523 105.237984 -1.079258 -0.687021 3.237958 3.894868 -0.208661 -0.020201 -1.110839 -3.216665 1.258223 -0.446837 3.483953 -6.850762 -3.764215 -4.874433 -0.872741 3.196034 -0.000001 0.000000 0.000000 2.764034 4.619745 -34.170798 22.212504 11.074061 -73.003978 -111.968923 64.011112 89.594371 0.000004 -0.000004 -0.000006 2.654303 -2.586035 5.245687 -9.878848 15.467655 5.891249 -1.337544 3.584244 6.942078 -0.000002 0.000001 0.000002 15.365398 0.046366 7.934772 -7.667638 2.408758 -0.457105 -19.994226 4.387319 3.218933 -0.000000 -0.000002 0.000001 -6.751355 2.714810 -4.083318 -4.398134 -0.212919 -1.643157 -18.245283 -9.676014 -15.007449 0.000002 0.000004 -0.000000 
-2.188217 105.227196 -1.082507 0.687430 4.073044 3.962241 -2.578851 0.187134 -1.117743 0.154831 0.906790 0.088436 1.192574 -7.682745 -4.514533 -5.264057 -0.913798 3.158293 -0.000001 -0.000000 0.000000 2.827831 3.148267 -34.055917 21.912565 11.648351 -72.560631 -111.708201 64.906639 89.517313 0.000002 -0.000004 0.000004 2.624880 -0.746434 5.264796 -9.797310 15.081874 5.658095 -0.829374 3.043023 5.618920 -0.000000 0.000000 0.000000 13.377257 -0.040195 7.874602 -6.964691 2.135947 -0.157123 -20.131433 3.722629 3.064167 -0.000002 0.000000 -0.000000 -8.002853 2.863985 -4.010641 -4.750909 -0.349208 -1.434973 -18.248411 -10.499974 -16.280616 0.000004 0.000003 0.000001 
-2.348760 105.208237 -1.086547 0.531183 4.066277 3.853852 -2.910230 0.204322 -0.950160 1.500694 0.771874 0.327067 0.394474 -7.761172 -4.860733 -6.194388 -0.904405 3.388556 -0.000001 -0.000000 0.000000 2.619981 2.229196 -33.544852 21.796479 12.626879 -71.573566 -108.823314 66.700991 88.336606 -0.000003 -0.000003 -0.000003 2.457194 -0.354259 5.071403 -9.631523 14.836974 5.267638 -0.129639 3.104113 4.618504 -0.000001 -0.000001 0.000000 11.570223 -0.072546 8.210179 -4.135196 1.506014 -0.295044 -19.927719 4.333049 3.178862 0.000002 -0.000001 -0.000001 -8.382823 2.828761 -3.724848 -3.974682 -0.172797 -1.119563 -19.297286 -10.416838 -16.158231 0.000006 0.000004 0.000002 
-2.531207 105.177322 -1.080990 0.591635 3.959952 3.838917 -3.189907 0.178292 -0.714483 2.291054 0.731816 0.415021 -0.034878 -8.055411 -5.158914 -6.659104 -0.758349 3.304619 0.000000 -0.000001 -0.000000 2.146306 3.717416 -33.308828 21.462097 14.215645 -69.612837 -104.780942 70.136467 87.440526 -0.000001 -0.000003 -0.000003 2.263918 -0.573590 4.867067 -9.181951 14.307570 4.654039 -0.294282 3.123195 3.724734 0.000000 -0.000001 -0.000003 10.573536 -0.136122 8.384199 -2.780934 1.158428 -0.263111 -19.348437 4.651203 3.154703 0.000002 -0.000001 -0.000001 -8.581201 2.834310 -3.560459 -3.451434 -0.104501 -0.681402 -20.045864 -10.494873 -16.217668 0.000004 0.000003 -0.000005 
-2.717707 105.147072 -1.071738 0.484071 3.425975 3.846584 -2.632533 0.079832 -0.522817 2.415239 0.766343 0.422926 -0.173276 -8.037405 -5.322857 -7.174329 -0.417742 3.284636 -0.000001 0.000001 0.000000 2.020120 4.223210 -33.130867 20.992185 15.047014 -67.510232 -99.103422 73.041524 84.333999 0.000001 -0.000003 -0.000001 2.314639 0.037027 4.917301 -8.853633 14.239380 4.048219 -1.708757 3.526388 2.723773 -0.000002 -0.000002 0.000002 10.083924 -0.235196 8.572704 -1.653171 0.870125 -0.512921 -18.524281 5.300576 3.194688 0.000005 -0.000002 0.000002 -8.377464 2.839415 -3.466092 -3.323826 0.001267 -0.549704 -20.204447 -10.534915 -16.024076 0.000002 0.000003 -0.000001 
-2.935458 105.109886 -1.057978 0.998519 3.198829 3.858882 -2.326642 0.030991 -0.436995 2.455608 0.932106 0.224307 -0.140961 -7.684455 -5.220324 -7.690227 -0.558803 3.308892 -0.000001 0.000000 0.000000 1.942354 4.105130 -32.560277 20.262376 16.455953 -64.345013 -89.426171 77.054144 78.593580 0.000004 -0.000006 -0.000005 2.307040 0.414814 4.699177 -8.402169 13.877707 3.461326 -2.470514 3.798930 1.613293 -0.000001 0.000000 -0.000003 8.697754 -0.287145 8.709233 0.230586 0.408156 -0.454852 -17.725348 5.329163 3.065943 0.000003 -0.000002 0.000001 -8.430794 2.810531 -3.254729 -3.400684 -0.025565 -0.589075 -20.054455 -10.559350 -15.933836 0.000011 0.000000 -0.000002 
